<svg width="277" height="158" viewBox="0 0 277 158" fill="none" xmlns="http://www.w3.org/2000/svg">
<ellipse cx="79" cy="85.5" rx="79" ry="72.5" fill="black"/>
<ellipse cx="192.5" cy="79" rx="84.5" ry="79" fill="#0F211C"/>
<path d="M125.295 76.79C125.985 76.93 126.63 77.205 127.23 77.615C127.83 78.025 128.24 78.53 128.46 79.13L130.905 85.685H133.095V89H127.98L125.28 81.02C125.04 80.32 124.75 79.835 124.41 79.565C124.07 79.285 123.565 79.145 122.895 79.145H121.485L125.295 76.79ZM119.895 69.665V66.35H123.945C126.635 66.35 128.655 66.885 130.005 67.955C131.365 69.015 132.045 70.5 132.045 72.41C132.045 73.33 131.88 74.165 131.55 74.915C131.23 75.665 130.76 76.31 130.14 76.85C129.52 77.38 128.76 77.775 127.86 78.035V78.545L123.84 79.145H117.885V76.055H123.795C124.745 76.055 125.545 75.935 126.195 75.695C126.845 75.445 127.335 75.075 127.665 74.585C128.005 74.095 128.175 73.48 128.175 72.74C128.175 71.66 127.775 70.88 126.975 70.4C126.185 69.91 125.135 69.665 123.825 69.665H119.895ZM111.81 69.665V66.35H121.695V69.665H118.65V85.685H121.71V89H111.81V85.685H114.87V69.665H111.81ZM145.672 63.44V92H144.472V63.44H145.672ZM146.677 89.3C144.717 89.3 143.157 88.895 141.997 88.085C140.847 87.275 140.162 86.1 139.942 84.56H139.252L139.807 82.07C140.047 83.37 140.712 84.4 141.802 85.16C142.902 85.92 144.262 86.3 145.882 86.3C147.292 86.3 148.377 86.015 149.137 85.445C149.897 84.875 150.277 84.055 150.277 82.985C150.277 82.255 150.097 81.65 149.737 81.17C149.377 80.68 148.797 80.285 147.997 79.985C147.207 79.675 146.142 79.43 144.802 79.25C142.842 79 141.207 78.57 139.897 77.96C138.597 77.34 137.617 76.545 136.957 75.575C136.307 74.605 135.982 73.455 135.982 72.125C135.982 70.215 136.612 68.725 137.872 67.655C139.142 66.575 140.892 66.035 143.122 66.035C144.392 66.035 145.477 66.22 146.377 66.59C147.277 66.95 147.987 67.49 148.507 68.21C149.027 68.92 149.352 69.805 149.482 70.865H150.172L149.617 73.265C149.387 71.985 148.747 70.96 147.697 70.19C146.647 69.42 145.372 69.035 143.872 69.035C142.642 69.035 141.667 69.285 140.947 69.785C140.227 70.285 139.867 70.97 139.867 71.84C139.867 72.46 140.052 72.995 140.422 73.445C140.802 73.895 141.397 74.285 142.207 74.615C143.017 74.945 144.077 75.225 145.387 75.455C147.447 75.745 149.122 76.185 150.412 76.775C151.702 77.365 152.647 78.145 153.247 79.115C153.847 80.075 154.147 81.26 154.147 82.67C154.147 84.76 153.492 86.39 152.182 87.56C150.882 88.72 149.047 89.3 146.677 89.3ZM136.027 89V82.07H139.807V89H136.027ZM149.617 73.265V66.35H153.397V73.265H149.617ZM172.162 66.35H174.607V85.685H178.957V89H166.462V85.685H170.827V68.225L172.162 66.35ZM166.597 68.855H168.187C168.767 68.855 169.272 68.755 169.702 68.555C170.142 68.355 170.497 68.07 170.767 67.7C171.037 67.32 171.212 66.87 171.292 66.35H172.492L171.532 69.98H170.692C170.422 70.89 170.032 71.53 169.522 71.9C169.022 72.26 168.367 72.44 167.557 72.44H166.597V68.855ZM190.422 89.36C188.542 89.36 186.937 88.89 185.607 87.95C184.287 87.01 183.277 85.665 182.577 83.915C181.887 82.165 181.542 80.07 181.542 77.63C181.542 75.2 181.887 73.12 182.577 71.39C183.277 69.65 184.287 68.315 185.607 67.385C186.937 66.455 188.542 65.99 190.422 65.99C192.302 65.99 193.902 66.455 195.222 67.385C196.552 68.315 197.562 69.65 198.252 71.39C198.952 73.12 199.302 75.2 199.302 77.63C199.302 80.07 198.952 82.165 198.252 83.915C197.562 85.665 196.552 87.01 195.222 87.95C193.902 88.89 192.302 89.36 190.422 89.36ZM190.422 85.73C192.082 85.73 193.337 85.025 194.187 83.615C195.037 82.195 195.462 80.195 195.462 77.615C195.462 75.055 195.037 73.085 194.187 71.705C193.337 70.315 192.082 69.62 190.422 69.62C188.772 69.62 187.517 70.315 186.657 71.705C185.807 73.085 185.382 75.055 185.382 77.615C185.382 80.195 185.807 82.195 186.657 83.615C187.517 85.025 188.772 85.73 190.422 85.73ZM210.976 89.315C209.276 89.315 207.786 89.04 206.506 88.49C205.236 87.93 204.246 87.16 203.536 86.18C202.826 85.19 202.471 84.055 202.471 82.775C202.471 81.485 202.821 80.345 203.521 79.355C204.231 78.365 205.226 77.59 206.506 77.03C207.786 76.47 209.276 76.19 210.976 76.19C212.686 76.19 214.176 76.47 215.446 77.03C216.716 77.59 217.706 78.365 218.416 79.355C219.126 80.345 219.481 81.485 219.481 82.775C219.481 84.055 219.126 85.19 218.416 86.18C217.706 87.16 216.716 87.93 215.446 88.49C214.176 89.04 212.686 89.315 210.976 89.315ZM210.976 85.85C211.866 85.85 212.651 85.695 213.331 85.385C214.011 85.075 214.541 84.65 214.921 84.11C215.311 83.56 215.506 82.925 215.506 82.205C215.506 81.485 215.311 80.85 214.921 80.3C214.541 79.74 214.011 79.305 213.331 78.995C212.651 78.685 211.866 78.53 210.976 78.53C210.086 78.53 209.301 78.685 208.621 78.995C207.941 79.305 207.406 79.74 207.016 80.3C206.636 80.85 206.446 81.485 206.446 82.205C206.446 82.925 206.636 83.56 207.016 84.11C207.406 84.65 207.941 85.075 208.621 85.385C209.301 85.695 210.086 85.85 210.976 85.85ZM210.976 78.02C209.396 78.02 208.011 77.77 206.821 77.27C205.641 76.76 204.721 76.06 204.061 75.17C203.401 74.27 203.071 73.24 203.071 72.08C203.071 70.9 203.396 69.855 204.046 68.945C204.706 68.025 205.631 67.31 206.821 66.8C208.011 66.28 209.396 66.02 210.976 66.02C212.566 66.02 213.951 66.28 215.131 66.8C216.311 67.31 217.231 68.025 217.891 68.945C218.551 69.855 218.881 70.9 218.881 72.08C218.881 73.24 218.551 74.27 217.891 75.17C217.231 76.06 216.311 76.76 215.131 77.27C213.951 77.77 212.566 78.02 210.976 78.02ZM210.976 75.68C211.746 75.68 212.426 75.55 213.016 75.29C213.606 75.03 214.066 74.67 214.396 74.21C214.736 73.75 214.906 73.22 214.906 72.62C214.906 72 214.736 71.455 214.396 70.985C214.066 70.505 213.606 70.135 213.016 69.875C212.426 69.605 211.746 69.47 210.976 69.47C210.206 69.47 209.526 69.605 208.936 69.875C208.346 70.135 207.881 70.505 207.541 70.985C207.211 71.455 207.046 72 207.046 72.62C207.046 73.22 207.211 73.75 207.541 74.21C207.881 74.67 208.346 75.03 208.936 75.29C209.526 75.55 210.206 75.68 210.976 75.68ZM221.702 84.59H226.277V89H221.702V84.59ZM224.027 85.67H226.277V90.035C226.277 91.335 225.887 92.355 225.107 93.095C224.337 93.845 223.247 94.225 221.837 94.235V92.165C222.527 92.165 223.062 91.99 223.442 91.64C223.832 91.3 224.027 90.775 224.027 90.065V85.67ZM237.414 89.36C235.534 89.36 233.929 88.89 232.599 87.95C231.279 87.01 230.269 85.665 229.569 83.915C228.879 82.165 228.534 80.07 228.534 77.63C228.534 75.2 228.879 73.12 229.569 71.39C230.269 69.65 231.279 68.315 232.599 67.385C233.929 66.455 235.534 65.99 237.414 65.99C239.294 65.99 240.894 66.455 242.214 67.385C243.544 68.315 244.554 69.65 245.244 71.39C245.944 73.12 246.294 75.2 246.294 77.63C246.294 80.07 245.944 82.165 245.244 83.915C244.554 85.665 243.544 87.01 242.214 87.95C240.894 88.89 239.294 89.36 237.414 89.36ZM237.414 85.73C239.074 85.73 240.329 85.025 241.179 83.615C242.029 82.195 242.454 80.195 242.454 77.615C242.454 75.055 242.029 73.085 241.179 71.705C240.329 70.315 239.074 69.62 237.414 69.62C235.764 69.62 234.509 70.315 233.649 71.705C232.799 73.085 232.374 75.055 232.374 77.615C232.374 80.195 232.799 82.195 233.649 83.615C234.509 85.025 235.764 85.73 237.414 85.73ZM258.508 89.36C256.628 89.36 255.023 88.89 253.693 87.95C252.373 87.01 251.363 85.665 250.663 83.915C249.973 82.165 249.628 80.07 249.628 77.63C249.628 75.2 249.973 73.12 250.663 71.39C251.363 69.65 252.373 68.315 253.693 67.385C255.023 66.455 256.628 65.99 258.508 65.99C260.388 65.99 261.988 66.455 263.308 67.385C264.638 68.315 265.648 69.65 266.338 71.39C267.038 73.12 267.388 75.2 267.388 77.63C267.388 80.07 267.038 82.165 266.338 83.915C265.648 85.665 264.638 87.01 263.308 87.95C261.988 88.89 260.388 89.36 258.508 89.36ZM258.508 85.73C260.168 85.73 261.423 85.025 262.273 83.615C263.123 82.195 263.548 80.195 263.548 77.615C263.548 75.055 263.123 73.085 262.273 71.705C261.423 70.315 260.168 69.62 258.508 69.62C256.858 69.62 255.603 70.315 254.743 71.705C253.893 73.085 253.468 75.055 253.468 77.615C253.468 80.195 253.893 82.195 254.743 83.615C255.603 85.025 256.858 85.73 258.508 85.73Z" fill="white"/>
<path d="M44.7231 77.6952C44.913 77.8165 45.1291 77.9046 45.3591 77.9548C45.5891 78.0049 45.8284 78.016 46.0634 77.9874C46.2984 77.9589 46.5245 77.8912 46.7288 77.7883C46.9331 77.6854 47.1115 77.5492 47.254 77.3876C48.3485 76.1458 49.7677 75.1379 51.3993 74.4438C53.0309 73.7496 54.8301 73.3882 56.6543 73.3882C58.4785 73.3882 60.2776 73.7496 61.9092 74.4438C63.5408 75.1379 64.9601 76.1458 66.0546 77.3876C66.3426 77.7137 66.771 77.9291 67.2456 77.9864C67.7202 78.0437 68.2022 77.9383 68.5854 77.6933C68.7221 77.6069 68.8431 77.5039 68.9447 77.3876C70.0392 76.1458 71.4585 75.1379 73.0901 74.4438C74.7217 73.7496 76.5209 73.3882 78.345 73.3882C80.1692 73.3882 81.9684 73.7496 83.6 74.4438C85.2316 75.1379 86.6508 76.1458 87.7454 77.3876C88.0333 77.714 88.4619 77.9296 88.9367 77.9872C89.4115 78.0447 89.8938 77.9393 90.2773 77.6943C90.6609 77.4493 90.9144 77.0846 90.9819 76.6806C91.0495 76.2765 90.9257 75.8662 90.6378 75.5398C89.0376 73.7144 86.9038 72.2772 84.4485 71.3712C85.7945 70.3254 86.7376 68.9578 87.1539 67.4479C87.5702 65.9379 87.4403 64.3561 86.7813 62.9101C86.1222 61.4641 84.9647 60.2214 83.4608 59.3452C81.9569 58.4689 80.1768 58 78.3541 58C76.5314 58 74.7513 58.4689 73.2474 59.3452C71.7434 60.2214 70.586 61.4641 69.9269 62.9101C69.2678 64.3561 69.1379 65.9379 69.5542 67.4479C69.9706 68.9578 70.9136 70.3254 72.2597 71.3712C70.4868 72.0235 68.8763 72.9573 67.5143 74.1227C66.1524 72.9573 64.5419 72.0235 62.769 71.3712C64.1151 70.3254 65.0581 68.9578 65.4744 67.4479C65.8908 65.9379 65.7609 64.3561 65.1018 62.9101C64.4427 61.4641 63.2853 60.2214 61.7813 59.3452C60.2774 58.4689 58.4973 58 56.6746 58C54.8519 58 53.0718 58.4689 51.5679 59.3452C50.064 60.2214 48.9065 61.4641 48.2474 62.9101C47.5884 64.3561 47.4585 65.9379 47.8748 67.4479C48.2911 68.9578 49.2341 70.3254 50.5802 71.3712C48.1141 72.2743 45.9698 73.7124 44.3616 75.5417C44.2191 75.7033 44.1155 75.8872 44.0566 76.0829C43.9976 76.2786 43.9846 76.4822 44.0182 76.6822C44.0517 76.8822 44.1313 77.0746 44.2522 77.2484C44.3732 77.4222 44.5332 77.574 44.7231 77.6952ZM78.3473 61.0823C79.4199 61.0823 80.4685 61.3529 81.3603 61.86C82.2522 62.3671 82.9473 63.0878 83.3577 63.931C83.7682 64.7742 83.8756 65.7021 83.6664 66.5973C83.4571 67.4924 82.9406 68.3147 82.1821 68.9601C81.4237 69.6055 80.4573 70.045 79.4053 70.223C78.3533 70.4011 77.2629 70.3097 76.2719 69.9604C75.2809 69.6112 74.4339 69.0197 73.838 68.2608C73.2421 67.5019 72.924 66.6097 72.924 65.697C72.924 64.4731 73.4954 63.2993 74.5125 62.4339C75.5295 61.5685 76.909 61.0823 78.3473 61.0823ZM56.6543 61.0823C57.7269 61.0823 58.7754 61.3529 59.6673 61.86C60.5591 62.3671 61.2542 63.0878 61.6647 63.931C62.0752 64.7742 62.1826 65.7021 61.9733 66.5973C61.7641 67.4924 61.2476 68.3147 60.4891 68.9601C59.7306 69.6055 58.7643 70.045 57.7123 70.223C56.6603 70.4011 55.5698 70.3097 54.5789 69.9604C53.5879 69.6112 52.7409 69.0197 52.145 68.2608C51.5491 67.5019 51.231 66.6097 51.231 65.697C51.231 64.4731 51.8024 63.2993 52.8194 62.4339C53.8365 61.5685 55.2159 61.0823 56.6543 61.0823ZM84.4485 91.3683C85.7945 90.3225 86.7376 88.9549 87.1539 87.445C87.5702 85.935 87.4403 84.3532 86.7813 82.9072C86.1222 81.4612 84.9647 80.2185 83.4608 79.3423C81.9569 78.466 80.1768 77.9971 78.3541 77.9971C76.5314 77.9971 74.7513 78.466 73.2474 79.3423C71.7434 80.2185 70.586 81.4612 69.9269 82.9072C69.2678 84.3532 69.1379 85.935 69.5542 87.445C69.9706 88.9549 70.9136 90.3225 72.2597 91.3683C70.4868 92.0206 68.8763 92.9544 67.5143 94.1198C66.1524 92.9544 64.5419 92.0206 62.769 91.3683C64.1151 90.3225 65.0581 88.9549 65.4744 87.445C65.8908 85.935 65.7609 84.3532 65.1018 82.9072C64.4427 81.4612 63.2853 80.2185 61.7813 79.3423C60.2774 78.466 58.4973 77.9971 56.6746 77.9971C54.8519 77.9971 53.0718 78.466 51.5679 79.3423C50.064 80.2185 48.9065 81.4612 48.2474 82.9072C47.5884 84.3532 47.4585 85.935 47.8748 87.445C48.2911 88.9549 49.2341 90.3225 50.5802 91.3683C48.1141 92.2714 45.9698 93.7095 44.3616 95.5388C44.2191 95.7004 44.1155 95.8843 44.0566 96.08C43.9976 96.2757 43.9846 96.4793 44.0182 96.6793C44.0517 96.8793 44.1313 97.0717 44.2522 97.2455C44.3732 97.4193 44.5332 97.5711 44.7231 97.6923C44.913 97.8135 45.1291 97.9017 45.3591 97.9519C45.5891 98.002 45.8284 98.0131 46.0634 97.9845C46.2984 97.956 46.5245 97.8883 46.7288 97.7854C46.9331 97.6825 47.1115 97.5463 47.254 97.3847C48.3485 96.1429 49.7677 95.135 51.3993 94.4409C53.0309 93.7467 54.8301 93.3853 56.6543 93.3853C58.4785 93.3853 60.2776 93.7467 61.9092 94.4409C63.5408 95.135 64.9601 96.1429 66.0546 97.3847C66.3426 97.7108 66.771 97.9262 67.2456 97.9835C67.7202 98.0408 68.2022 97.9354 68.5854 97.6904C68.7221 97.604 68.8431 97.501 68.9447 97.3847C70.0392 96.1429 71.4585 95.135 73.0901 94.4409C74.7217 93.7467 76.5209 93.3853 78.345 93.3853C80.1692 93.3853 81.9684 93.7467 83.6 94.4409C85.2316 95.135 86.6508 96.1429 87.7454 97.3847C88.0333 97.7111 88.4619 97.9267 88.9367 97.9843C89.4115 98.0418 89.8938 97.9364 90.2773 97.6914C90.6609 97.4464 90.9144 97.0817 90.9819 96.6777C91.0495 96.2736 90.9257 95.8633 90.6378 95.5369C89.0376 93.7115 86.9038 92.2743 84.4485 91.3683ZM56.6543 81.0794C57.7269 81.0794 58.7754 81.35 59.6673 81.8571C60.5591 82.3642 61.2542 83.0849 61.6647 83.9281C62.0752 84.7713 62.1826 85.6992 61.9733 86.5944C61.7641 87.4895 61.2476 88.3118 60.4891 88.9572C59.7306 89.6026 58.7643 90.0421 57.7123 90.2201C56.6603 90.3982 55.5698 90.3068 54.5789 89.9575C53.5879 89.6083 52.7409 89.0168 52.145 88.2579C51.5491 87.499 51.231 86.6068 51.231 85.6941C51.231 84.4702 51.8024 83.2964 52.8194 82.431C53.8365 81.5656 55.2159 81.0794 56.6543 81.0794ZM78.3473 81.0794C79.4199 81.0794 80.4685 81.35 81.3603 81.8571C82.2522 82.3642 82.9473 83.0849 83.3577 83.9281C83.7682 84.7713 83.8756 85.6992 83.6664 86.5944C83.4571 87.4895 82.9406 88.3118 82.1821 88.9572C81.4237 89.6026 80.4573 90.0421 79.4053 90.2201C78.3533 90.3982 77.2629 90.3068 76.2719 89.9575C75.2809 89.6083 74.4339 89.0168 73.838 88.2579C73.2421 87.499 72.924 86.6068 72.924 85.6941C72.924 84.4702 73.4954 83.2964 74.5125 82.431C75.5295 81.5656 76.909 81.0794 78.3473 81.0794Z" fill="white"/>
</svg>
