<svg width="269" height="158" viewBox="0 0 269 158" fill="none" xmlns="http://www.w3.org/2000/svg">
<ellipse cx="79" cy="81" rx="79" ry="77" fill="black"/>
<ellipse cx="188.5" cy="79" rx="80.5" ry="79" fill="#0F211C"/>
<path d="M131.295 76.79C131.985 76.93 132.63 77.205 133.23 77.615C133.83 78.025 134.24 78.53 134.46 79.13L136.905 85.685H139.095V89H133.98L131.28 81.02C131.04 80.32 130.75 79.835 130.41 79.565C130.07 79.285 129.565 79.145 128.895 79.145H127.485L131.295 76.79ZM125.895 69.665V66.35H129.945C132.635 66.35 134.655 66.885 136.005 67.955C137.365 69.015 138.045 70.5 138.045 72.41C138.045 73.33 137.88 74.165 137.55 74.915C137.23 75.665 136.76 76.31 136.14 76.85C135.52 77.38 134.76 77.775 133.86 78.035V78.545L129.84 79.145H123.885V76.055H129.795C130.745 76.055 131.545 75.935 132.195 75.695C132.845 75.445 133.335 75.075 133.665 74.585C134.005 74.095 134.175 73.48 134.175 72.74C134.175 71.66 133.775 70.88 132.975 70.4C132.185 69.91 131.135 69.665 129.825 69.665H125.895ZM117.81 69.665V66.35H127.695V69.665H124.65V85.685H127.71V89H117.81V85.685H120.87V69.665H117.81ZM151.672 63.44V92H150.472V63.44H151.672ZM152.677 89.3C150.717 89.3 149.157 88.895 147.997 88.085C146.847 87.275 146.162 86.1 145.942 84.56H145.252L145.807 82.07C146.047 83.37 146.712 84.4 147.802 85.16C148.902 85.92 150.262 86.3 151.882 86.3C153.292 86.3 154.377 86.015 155.137 85.445C155.897 84.875 156.277 84.055 156.277 82.985C156.277 82.255 156.097 81.65 155.737 81.17C155.377 80.68 154.797 80.285 153.997 79.985C153.207 79.675 152.142 79.43 150.802 79.25C148.842 79 147.207 78.57 145.897 77.96C144.597 77.34 143.617 76.545 142.957 75.575C142.307 74.605 141.982 73.455 141.982 72.125C141.982 70.215 142.612 68.725 143.872 67.655C145.142 66.575 146.892 66.035 149.122 66.035C150.392 66.035 151.477 66.22 152.377 66.59C153.277 66.95 153.987 67.49 154.507 68.21C155.027 68.92 155.352 69.805 155.482 70.865H156.172L155.617 73.265C155.387 71.985 154.747 70.96 153.697 70.19C152.647 69.42 151.372 69.035 149.872 69.035C148.642 69.035 147.667 69.285 146.947 69.785C146.227 70.285 145.867 70.97 145.867 71.84C145.867 72.46 146.052 72.995 146.422 73.445C146.802 73.895 147.397 74.285 148.207 74.615C149.017 74.945 150.077 75.225 151.387 75.455C153.447 75.745 155.122 76.185 156.412 76.775C157.702 77.365 158.647 78.145 159.247 79.115C159.847 80.075 160.147 81.26 160.147 82.67C160.147 84.76 159.492 86.39 158.182 87.56C156.882 88.72 155.047 89.3 152.677 89.3ZM142.027 89V82.07H145.807V89H142.027ZM155.617 73.265V66.35H159.397V73.265H155.617ZM178.162 66.35H180.607V85.685H184.957V89H172.462V85.685H176.827V68.225L178.162 66.35ZM172.597 68.855H174.187C174.767 68.855 175.272 68.755 175.702 68.555C176.142 68.355 176.497 68.07 176.767 67.7C177.037 67.32 177.212 66.87 177.292 66.35H178.492L177.532 69.98H176.692C176.422 70.89 176.032 71.53 175.522 71.9C175.022 72.26 174.367 72.44 173.557 72.44H172.597V68.855ZM188.262 84.65L191.952 83.255C192.342 84.045 192.897 84.655 193.617 85.085C194.347 85.505 195.182 85.715 196.122 85.715C197.022 85.715 197.822 85.53 198.522 85.16C199.222 84.78 199.772 84.26 200.172 83.6C200.572 82.93 200.772 82.15 200.772 81.26C200.772 80.37 200.577 79.595 200.187 78.935C199.797 78.265 199.257 77.75 198.567 77.39C197.887 77.02 197.102 76.835 196.212 76.835C195.112 76.835 194.132 77.125 193.272 77.705C192.412 78.285 191.862 79.08 191.622 80.09L191.412 77.705L192.102 77.735C192.282 76.775 192.587 75.975 193.017 75.335C193.447 74.695 194.007 74.215 194.697 73.895C195.387 73.575 196.217 73.415 197.187 73.415C198.627 73.415 199.917 73.75 201.057 74.42C202.207 75.08 203.112 76 203.772 77.18C204.442 78.35 204.777 79.71 204.777 81.26C204.777 82.87 204.407 84.28 203.667 85.49C202.927 86.69 201.907 87.625 200.607 88.295C199.307 88.965 197.812 89.3 196.122 89.3C194.222 89.3 192.592 88.89 191.232 88.07C189.872 87.25 188.882 86.11 188.262 84.65ZM193.617 66.35L191.622 80.09L188.067 79.43L189.837 66.35H193.617ZM192.117 69.665V66.35H203.112V69.665H192.117ZM207.517 84.59H212.092V89H207.517V84.59ZM209.842 85.67H212.092V90.035C212.092 91.335 211.702 92.355 210.922 93.095C210.152 93.845 209.062 94.225 207.652 94.235V92.165C208.342 92.165 208.877 91.99 209.257 91.64C209.647 91.3 209.842 90.775 209.842 90.065V85.67ZM223.229 89.36C221.349 89.36 219.744 88.89 218.414 87.95C217.094 87.01 216.084 85.665 215.384 83.915C214.694 82.165 214.349 80.07 214.349 77.63C214.349 75.2 214.694 73.12 215.384 71.39C216.084 69.65 217.094 68.315 218.414 67.385C219.744 66.455 221.349 65.99 223.229 65.99C225.109 65.99 226.709 66.455 228.029 67.385C229.359 68.315 230.369 69.65 231.059 71.39C231.759 73.12 232.109 75.2 232.109 77.63C232.109 80.07 231.759 82.165 231.059 83.915C230.369 85.665 229.359 87.01 228.029 87.95C226.709 88.89 225.109 89.36 223.229 89.36ZM223.229 85.73C224.889 85.73 226.144 85.025 226.994 83.615C227.844 82.195 228.269 80.195 228.269 77.615C228.269 75.055 227.844 73.085 226.994 71.705C226.144 70.315 224.889 69.62 223.229 69.62C221.579 69.62 220.324 70.315 219.464 71.705C218.614 73.085 218.189 75.055 218.189 77.615C218.189 80.195 218.614 82.195 219.464 83.615C220.324 85.025 221.579 85.73 223.229 85.73ZM244.322 89.36C242.442 89.36 240.837 88.89 239.507 87.95C238.187 87.01 237.177 85.665 236.477 83.915C235.787 82.165 235.442 80.07 235.442 77.63C235.442 75.2 235.787 73.12 236.477 71.39C237.177 69.65 238.187 68.315 239.507 67.385C240.837 66.455 242.442 65.99 244.322 65.99C246.202 65.99 247.802 66.455 249.122 67.385C250.452 68.315 251.462 69.65 252.152 71.39C252.852 73.12 253.202 75.2 253.202 77.63C253.202 80.07 252.852 82.165 252.152 83.915C251.462 85.665 250.452 87.01 249.122 87.95C247.802 88.89 246.202 89.36 244.322 89.36ZM244.322 85.73C245.982 85.73 247.237 85.025 248.087 83.615C248.937 82.195 249.362 80.195 249.362 77.615C249.362 75.055 248.937 73.085 248.087 71.705C247.237 70.315 245.982 69.62 244.322 69.62C242.672 69.62 241.417 70.315 240.557 71.705C239.707 73.085 239.282 75.055 239.282 77.615C239.282 80.195 239.707 82.195 240.557 83.615C241.417 85.025 242.672 85.73 244.322 85.73Z" fill="white"/>
<path d="M77.2435 62C79.0574 62 80.8305 61.5895 82.3386 60.8203C83.8468 60.0511 85.0223 58.9579 85.7164 57.6788C86.4105 56.3997 86.5922 54.9922 86.2383 53.6344C85.8844 52.2765 85.011 51.0292 83.7284 50.0503C82.4458 49.0713 80.8117 48.4046 79.0327 48.1345C77.2537 47.8644 75.4097 48.003 73.7339 48.5328C72.0582 49.0627 70.6259 49.9599 69.6181 51.111C68.6104 52.2622 68.0725 53.6155 68.0725 55C68.0725 56.8565 69.0388 58.637 70.7587 59.9497C72.4786 61.2625 74.8112 62 77.2435 62ZM77.2435 51.5C78.1504 51.5 79.037 51.7053 79.7911 52.0899C80.5452 52.4744 81.1329 53.0211 81.48 53.6606C81.827 54.3002 81.9178 55.0039 81.7409 55.6828C81.564 56.3618 81.1272 56.9854 80.486 57.4749C79.8447 57.9644 79.0276 58.2977 78.1381 58.4328C77.2486 58.5678 76.3266 58.4985 75.4887 58.2336C74.6508 57.9687 73.9347 57.5201 73.4308 56.9445C72.927 56.3689 72.658 55.6922 72.658 55C72.658 54.0717 73.1411 53.1815 74.0011 52.5251C74.861 51.8688 76.0274 51.5 77.2435 51.5ZM91 76V95.25C91 95.7141 90.7584 96.1592 90.3285 96.4874C89.8985 96.8156 89.3153 97 88.7073 97C88.0992 97 87.516 96.8156 87.086 96.4874C86.6561 96.1592 86.4145 95.7141 86.4145 95.25V77.6756C79.0347 77.1834 76.57 74.2806 74.3776 71.6906C73.5608 70.7303 72.7841 69.8159 71.761 69.0241L67.9206 75.7638L78.5819 81.5759C78.8778 81.7383 79.1188 81.9522 79.2847 82.1999C79.4507 82.4475 79.5369 82.7218 79.5363 83V95.25C79.5363 95.7141 79.2947 96.1592 78.8647 96.4874C78.4348 96.8156 77.8516 97 77.2435 97C76.6354 97 76.0523 96.8156 75.6223 96.4874C75.1923 96.1592 74.9508 95.7141 74.9508 95.25V83.9012L66.0463 79.045L56.4197 95.9478C56.2415 96.2606 55.9475 96.5268 55.5737 96.7137C55.2 96.9006 54.7629 97.0001 54.3161 97C54.0012 97.0006 53.6898 96.9506 53.4018 96.8534C52.845 96.6681 52.4073 96.3216 52.1848 95.8902C51.9624 95.4587 51.9733 94.9775 52.2153 94.5522L68.7002 65.6094C68.8253 65.3898 69.0082 65.1922 69.2374 65.0287C69.4667 64.8653 69.7374 64.7394 70.0329 64.6591C70.3284 64.5787 70.6424 64.5455 70.9554 64.5614C71.2684 64.5774 71.5738 64.6422 71.8527 64.7519C72.6764 65.08 73.446 65.4817 74.1455 65.9484C75.9711 67.1559 77.1575 68.5538 78.2036 69.7875C80.4046 72.3775 81.9924 74.25 88.6929 74.25C88.9952 74.2486 89.2949 74.2928 89.5747 74.3801C89.8545 74.4674 90.109 74.596 90.3234 74.7587C90.5378 74.9213 90.708 75.1147 90.8241 75.3278C90.9402 75.5408 91 75.7693 91 76ZM54.3161 77.75C54.7647 77.7498 55.2033 77.6492 55.5778 77.4607C55.9522 77.2721 56.2459 77.0038 56.4225 76.6891L63.3008 64.4391C63.5399 64.0126 63.5475 63.5312 63.3218 63.1005C63.0961 62.6698 62.6556 62.3251 62.0971 62.1422L54.0725 59.5172C53.5138 59.3346 52.883 59.3289 52.3187 59.5012C51.7544 59.6734 51.3029 60.0097 51.0632 60.4359L44.185 72.6859C43.9458 73.1124 43.9383 73.5938 44.164 74.0245C44.3897 74.4552 44.8302 74.7999 45.3887 74.9828L53.4133 77.6078C53.6985 77.7014 54.0056 77.7497 54.3161 77.75ZM49.3035 72.4563L54.3734 63.4219L58.1851 64.6688L53.1124 73.7009L49.3035 72.4563Z" fill="white"/>
</svg>
