<svg width="274" height="145" viewBox="0 0 274 145" fill="none" xmlns="http://www.w3.org/2000/svg">
<ellipse cx="79" cy="72.5" rx="79" ry="72.5" fill="black"/>
<ellipse cx="189" cy="72.5" rx="81" ry="72.5" fill="#0F211C"/>
<path d="M88.7619 84.8095C85.6896 80.075 80.955 76.6802 75.4297 75.0709C78.1627 73.6206 80.2862 71.4108 81.4739 68.7807C82.6616 66.1506 82.8478 63.2457 82.0041 60.5122C81.1604 57.7786 79.3333 55.3675 76.8034 53.6491C74.2735 51.9307 71.1807 51 68 51C64.8193 51 61.7265 51.9307 59.1966 53.6491C56.6667 55.3675 54.8396 57.7786 53.9959 60.5122C53.1522 63.2457 53.3384 66.1506 54.5261 68.7807C55.7138 71.4108 57.8373 73.6206 60.5703 75.0709C55.045 76.6784 50.3104 80.0732 47.2381 84.8095C47.1254 84.9732 47.0507 85.1554 47.0183 85.3453C46.9859 85.5352 46.9966 85.729 47.0495 85.9152C47.1025 86.1014 47.1968 86.2763 47.3269 86.4294C47.4569 86.5826 47.62 86.7111 47.8066 86.8071C47.9932 86.9032 48.1996 86.965 48.4134 86.9889C48.6272 87.0127 48.8443 86.9982 49.0517 86.946C49.2591 86.8939 49.4527 86.8053 49.6211 86.6854C49.7895 86.5655 49.9292 86.4168 50.0321 86.248C53.8326 80.3933 60.5502 76.8978 68 76.8978C75.4498 76.8978 82.1674 80.3933 85.9679 86.248C86.0708 86.4168 86.2105 86.5655 86.3789 86.6854C86.5473 86.8053 86.7409 86.8939 86.9483 86.946C87.1557 86.9982 87.3728 87.0127 87.5866 86.9889C87.8004 86.965 88.0068 86.9032 88.1934 86.8071C88.38 86.7111 88.5431 86.5826 88.6731 86.4294C88.8032 86.2763 88.8975 86.1014 88.9505 85.9152C89.0034 85.729 89.0141 85.5352 88.9817 85.3453C88.9493 85.1554 88.8746 84.9732 88.7619 84.8095ZM56.7032 63.9513C56.7032 61.9598 57.3658 60.013 58.6071 58.357C59.8484 56.7011 61.6127 55.4105 63.6769 54.6484C65.7411 53.8862 68.0125 53.6868 70.2039 54.0754C72.3953 54.4639 74.4082 55.4229 75.988 56.8311C77.5679 58.2394 78.6438 60.0336 79.0797 61.9869C79.5156 63.9402 79.2919 65.9648 78.4369 67.8047C77.5818 69.6447 76.1339 71.2173 74.2762 72.3238C72.4184 73.4302 70.2343 74.0208 68 74.0208C65.0049 74.0179 62.1334 72.9561 60.0155 71.0683C57.8976 69.1806 56.7064 66.621 56.7032 63.9513Z" fill="white"/>
<path d="M130.084 68.79C130.774 68.93 131.419 69.205 132.019 69.615C132.619 70.025 133.029 70.53 133.249 71.13L135.694 77.685H137.884V81H132.769L130.069 73.02C129.829 72.32 129.539 71.835 129.199 71.565C128.859 71.285 128.354 71.145 127.684 71.145H126.274L130.084 68.79ZM124.684 61.665V58.35H128.734C131.424 58.35 133.444 58.885 134.794 59.955C136.154 61.015 136.834 62.5 136.834 64.41C136.834 65.33 136.669 66.165 136.339 66.915C136.019 67.665 135.549 68.31 134.929 68.85C134.309 69.38 133.549 69.775 132.649 70.035V70.545L128.629 71.145H122.674V68.055H128.584C129.534 68.055 130.334 67.935 130.984 67.695C131.634 67.445 132.124 67.075 132.454 66.585C132.794 66.095 132.964 65.48 132.964 64.74C132.964 63.66 132.564 62.88 131.764 62.4C130.974 61.91 129.924 61.665 128.614 61.665H124.684ZM116.599 61.665V58.35H126.484V61.665H123.439V77.685H126.499V81H116.599V77.685H119.659V61.665H116.599ZM150.461 55.44V84H149.261V55.44H150.461ZM151.466 81.3C149.506 81.3 147.946 80.895 146.786 80.085C145.636 79.275 144.951 78.1 144.731 76.56H144.041L144.596 74.07C144.836 75.37 145.501 76.4 146.591 77.16C147.691 77.92 149.051 78.3 150.671 78.3C152.081 78.3 153.166 78.015 153.926 77.445C154.686 76.875 155.066 76.055 155.066 74.985C155.066 74.255 154.886 73.65 154.526 73.17C154.166 72.68 153.586 72.285 152.786 71.985C151.996 71.675 150.931 71.43 149.591 71.25C147.631 71 145.996 70.57 144.686 69.96C143.386 69.34 142.406 68.545 141.746 67.575C141.096 66.605 140.771 65.455 140.771 64.125C140.771 62.215 141.401 60.725 142.661 59.655C143.931 58.575 145.681 58.035 147.911 58.035C149.181 58.035 150.266 58.22 151.166 58.59C152.066 58.95 152.776 59.49 153.296 60.21C153.816 60.92 154.141 61.805 154.271 62.865H154.961L154.406 65.265C154.176 63.985 153.536 62.96 152.486 62.19C151.436 61.42 150.161 61.035 148.661 61.035C147.431 61.035 146.456 61.285 145.736 61.785C145.016 62.285 144.656 62.97 144.656 63.84C144.656 64.46 144.841 64.995 145.211 65.445C145.591 65.895 146.186 66.285 146.996 66.615C147.806 66.945 148.866 67.225 150.176 67.455C152.236 67.745 153.911 68.185 155.201 68.775C156.491 69.365 157.436 70.145 158.036 71.115C158.636 72.075 158.936 73.26 158.936 74.67C158.936 76.76 158.281 78.39 156.971 79.56C155.671 80.72 153.836 81.3 151.466 81.3ZM140.816 81V74.07H144.596V81H140.816ZM154.406 65.265V58.35H158.186V65.265H154.406ZM170.171 74.205L173.876 73.605C174.116 74.925 174.631 75.96 175.421 76.71C176.211 77.46 177.266 77.835 178.586 77.835C179.416 77.835 180.131 77.69 180.731 77.4C181.331 77.11 181.791 76.71 182.111 76.2C182.431 75.69 182.591 75.105 182.591 74.445C182.591 73.695 182.381 73.04 181.961 72.48C181.541 71.91 180.946 71.47 180.176 71.16C179.416 70.84 178.521 70.68 177.491 70.68V68.52C179.331 68.52 180.931 68.775 182.291 69.285C183.651 69.785 184.701 70.515 185.441 71.475C186.191 72.425 186.566 73.565 186.566 74.895C186.566 76.125 186.261 77.225 185.651 78.195C185.041 79.165 184.146 79.93 182.966 80.49C181.786 81.04 180.341 81.315 178.631 81.315C176.101 81.315 174.156 80.69 172.796 79.44C171.436 78.19 170.561 76.445 170.171 74.205ZM170.711 64.875C170.891 62.595 171.641 60.875 172.961 59.715C174.291 58.555 176.101 57.975 178.391 57.975C179.941 57.975 181.276 58.225 182.396 58.725C183.516 59.215 184.376 59.905 184.976 60.795C185.586 61.675 185.891 62.695 185.891 63.855C185.891 65.055 185.541 66.1 184.841 66.99C184.151 67.88 183.176 68.57 181.916 69.06C180.656 69.55 179.181 69.79 177.491 69.78V67.62C178.371 67.62 179.141 67.485 179.801 67.215C180.471 66.935 180.991 66.55 181.361 66.06C181.741 65.57 181.931 65 181.931 64.35C181.931 63.79 181.786 63.29 181.496 62.85C181.206 62.41 180.796 62.07 180.266 61.83C179.736 61.58 179.096 61.455 178.346 61.455C177.206 61.455 176.296 61.76 175.616 62.37C174.946 62.98 174.551 63.905 174.431 65.145L170.711 64.875ZM176.141 67.62H177.491V70.68H176.141V67.62ZM198.609 81.36C196.729 81.36 195.124 80.89 193.794 79.95C192.474 79.01 191.464 77.665 190.764 75.915C190.074 74.165 189.729 72.07 189.729 69.63C189.729 67.2 190.074 65.12 190.764 63.39C191.464 61.65 192.474 60.315 193.794 59.385C195.124 58.455 196.729 57.99 198.609 57.99C200.489 57.99 202.089 58.455 203.409 59.385C204.739 60.315 205.749 61.65 206.439 63.39C207.139 65.12 207.489 67.2 207.489 69.63C207.489 72.07 207.139 74.165 206.439 75.915C205.749 77.665 204.739 79.01 203.409 79.95C202.089 80.89 200.489 81.36 198.609 81.36ZM198.609 77.73C200.269 77.73 201.524 77.025 202.374 75.615C203.224 74.195 203.649 72.195 203.649 69.615C203.649 67.055 203.224 65.085 202.374 63.705C201.524 62.315 200.269 61.62 198.609 61.62C196.959 61.62 195.704 62.315 194.844 63.705C193.994 65.085 193.569 67.055 193.569 69.615C193.569 72.195 193.994 74.195 194.844 75.615C195.704 77.025 196.959 77.73 198.609 77.73ZM209.763 76.59H214.338V81H209.763V76.59ZM212.088 77.67H214.338V82.035C214.338 83.335 213.948 84.355 213.168 85.095C212.398 85.845 211.308 86.225 209.898 86.235V84.165C210.588 84.165 211.123 83.99 211.503 83.64C211.893 83.3 212.088 82.775 212.088 82.065V77.67ZM225.475 81.36C223.595 81.36 221.99 80.89 220.66 79.95C219.34 79.01 218.33 77.665 217.63 75.915C216.94 74.165 216.595 72.07 216.595 69.63C216.595 67.2 216.94 65.12 217.63 63.39C218.33 61.65 219.34 60.315 220.66 59.385C221.99 58.455 223.595 57.99 225.475 57.99C227.355 57.99 228.955 58.455 230.275 59.385C231.605 60.315 232.615 61.65 233.305 63.39C234.005 65.12 234.355 67.2 234.355 69.63C234.355 72.07 234.005 74.165 233.305 75.915C232.615 77.665 231.605 79.01 230.275 79.95C228.955 80.89 227.355 81.36 225.475 81.36ZM225.475 77.73C227.135 77.73 228.39 77.025 229.24 75.615C230.09 74.195 230.515 72.195 230.515 69.615C230.515 67.055 230.09 65.085 229.24 63.705C228.39 62.315 227.135 61.62 225.475 61.62C223.825 61.62 222.57 62.315 221.71 63.705C220.86 65.085 220.435 67.055 220.435 69.615C220.435 72.195 220.86 74.195 221.71 75.615C222.57 77.025 223.825 77.73 225.475 77.73ZM246.568 81.36C244.688 81.36 243.083 80.89 241.753 79.95C240.433 79.01 239.423 77.665 238.723 75.915C238.033 74.165 237.688 72.07 237.688 69.63C237.688 67.2 238.033 65.12 238.723 63.39C239.423 61.65 240.433 60.315 241.753 59.385C243.083 58.455 244.688 57.99 246.568 57.99C248.448 57.99 250.048 58.455 251.368 59.385C252.698 60.315 253.708 61.65 254.398 63.39C255.098 65.12 255.448 67.2 255.448 69.63C255.448 72.07 255.098 74.165 254.398 75.915C253.708 77.665 252.698 79.01 251.368 79.95C250.048 80.89 248.448 81.36 246.568 81.36ZM246.568 77.73C248.228 77.73 249.483 77.025 250.333 75.615C251.183 74.195 251.608 72.195 251.608 69.615C251.608 67.055 251.183 65.085 250.333 63.705C249.483 62.315 248.228 61.62 246.568 61.62C244.918 61.62 243.663 62.315 242.803 63.705C241.953 65.085 241.528 67.055 241.528 69.615C241.528 72.195 241.953 74.195 242.803 75.615C243.663 77.025 244.918 77.73 246.568 77.73Z" fill="white"/>
</svg>
