<svg width="40" height="39" viewBox="0 0 40 39" fill="none" xmlns="http://www.w3.org/2000/svg">
<path d="M20 0C16.0444 0 12.1776 1.14365 8.8886 3.28634C5.59962 5.42903 3.03617 8.47451 1.52242 12.0377C0.00866569 15.6008 -0.387401 19.5216 0.384303 23.3043C1.15601 27.0869 3.06082 30.5615 5.85787 33.2886C8.65492 36.0157 12.2186 37.8729 16.0982 38.6253C19.9778 39.3777 23.9991 38.9916 27.6537 37.5156C31.3082 36.0397 34.4318 33.5404 36.6294 30.3336C38.827 27.1269 40 23.3567 40 19.5C39.9944 14.33 37.8855 9.37322 34.136 5.71745C30.3864 2.06167 25.3026 0.00545966 20 0ZM20 36C16.6529 36 13.381 35.0323 10.598 33.2192C7.81506 31.4062 5.64599 28.8293 4.36512 25.8143C3.08426 22.7993 2.74912 19.4817 3.4021 16.281C4.05508 13.0803 5.66685 10.1403 8.03358 7.83274C10.4003 5.52517 13.4157 3.9537 16.6985 3.31704C19.9812 2.68039 23.3839 3.00714 26.4762 4.25599C29.5685 5.50483 32.2115 7.61968 34.071 10.3331C35.9306 13.0465 36.9231 16.2366 36.9231 19.5C36.918 23.8745 35.1334 28.0685 31.9608 31.1618C28.7882 34.255 24.4867 35.995 20 36ZM29.2308 19.5C29.2308 19.8978 29.0687 20.2794 28.7802 20.5607C28.4917 20.842 28.1003 21 27.6923 21H21.5385V27C21.5385 27.3978 21.3764 27.7794 21.0879 28.0607C20.7993 28.342 20.408 28.5 20 28.5C19.592 28.5 19.2007 28.342 18.9121 28.0607C18.6236 27.7794 18.4615 27.3978 18.4615 27V21H12.3077C11.8997 21 11.5084 20.842 11.2198 20.5607C10.9313 20.2794 10.7692 19.8978 10.7692 19.5C10.7692 19.1022 10.9313 18.7206 11.2198 18.4393C11.5084 18.158 11.8997 18 12.3077 18H18.4615V12C18.4615 11.6022 18.6236 11.2206 18.9121 10.9393C19.2007 10.658 19.592 10.5 20 10.5C20.408 10.5 20.7993 10.658 21.0879 10.9393C21.3764 11.2206 21.5385 11.6022 21.5385 12V18H27.6923C28.1003 18 28.4917 18.158 28.7802 18.4393C29.0687 18.7206 29.2308 19.1022 29.2308 19.5Z" fill="black"/>
</svg>
