<svg width="56" height="56" viewBox="0 0 56 56" fill="none" xmlns="http://www.w3.org/2000/svg">
<path d="M49 12C50.0609 12 51.0783 12.4214 51.8284 13.1716C52.5786 13.9217 53 14.9391 53 16V20.45C52.9998 21.0437 52.8344 21.6256 52.5223 22.1307C52.2103 22.6358 51.7639 23.0441 51.233 23.31L51.05 23.395C50.1586 23.7725 49.3958 24.4006 48.8544 25.2031C48.3129 26.0056 48.016 26.948 47.9997 27.9159C47.9834 28.8839 48.2484 29.8357 48.7625 30.656C49.2766 31.4763 50.0178 32.1297 50.896 32.537L51.096 32.625C51.6593 32.8573 52.1409 33.2515 52.4799 33.7579C52.8189 34.2642 52.9999 34.8597 53 35.469V40C53 41.0609 52.5786 42.0783 51.8284 42.8284C51.0783 43.5786 50.0609 44 49 44H7C5.93913 44 4.92172 43.5786 4.17157 42.8284C3.42143 42.0783 3 41.0609 3 40V35.737C3 34.435 3.725 33.248 4.869 32.65L5.053 32.56C5.91507 32.1719 6.64948 31.5474 7.17107 30.7589C7.69265 29.9704 7.98005 29.0502 7.99994 28.105C8.01983 27.1598 7.77139 26.2283 7.28343 25.4186C6.79547 24.6089 6.08798 23.954 5.243 23.53L5.043 23.435C4.43465 23.1619 3.91818 22.7188 3.55573 22.1591C3.19328 21.5994 3.0003 20.9468 3 20.28V16C3 14.9391 3.42143 13.9217 4.17157 13.1716C4.92172 12.4214 5.93913 12 7 12H49ZM48.962 15.45H7.038C6.77278 15.45 6.51843 15.5554 6.33089 15.7429C6.14336 15.9304 6.038 16.1848 6.038 16.45V19.567C7.60851 20.3462 8.93017 21.5485 9.85405 23.0385C10.7779 24.5284 11.2673 26.2468 11.267 28C11.2672 29.7533 10.7777 31.4717 9.85363 32.9617C8.92957 34.4517 7.60769 35.654 6.037 36.433V39.55C6.037 39.8152 6.14236 40.0696 6.32989 40.2571C6.51743 40.4446 6.77178 40.55 7.037 40.55H48.962C49.2272 40.55 49.4816 40.4446 49.6691 40.2571C49.8566 40.0696 49.962 39.8152 49.962 39.55V36.433C48.3915 35.6538 47.0698 34.4515 46.1459 32.9615C45.2221 31.4716 44.7327 29.7532 44.733 28C44.7328 26.2467 45.2223 24.5283 46.1464 23.0383C47.0704 21.5483 48.3923 20.346 49.963 19.567V16.45C49.963 16.1848 49.8576 15.9304 49.6701 15.7429C49.4826 15.5554 49.2272 15.45 48.962 15.45ZM39 33C39.7957 33 40.5587 33.3161 41.1213 33.8787C41.6839 34.4413 42 35.2044 42 36C42 36.7956 41.6839 37.5587 41.1213 38.1213C40.5587 38.6839 39.7957 39 39 39C38.2043 39 37.4413 38.6839 36.8787 38.1213C36.3161 37.5587 36 36.7956 36 36C36 35.2044 36.3161 34.4413 36.8787 33.8787C37.4413 33.3161 38.2043 33 39 33ZM39 25C39.7957 25 40.5587 25.3161 41.1213 25.8787C41.6839 26.4413 42 27.2044 42 28C42 28.7956 41.6839 29.5587 41.1213 30.1213C40.5587 30.6839 39.7957 31 39 31C38.2043 31 37.4413 30.6839 36.8787 30.1213C36.3161 29.5587 36 28.7956 36 28C36 27.2044 36.3161 26.4413 36.8787 25.8787C37.4413 25.3161 38.2043 25 39 25ZM39 17C39.7957 17 40.5587 17.3161 41.1213 17.8787C41.6839 18.4413 42 19.2044 42 20C42 20.7956 41.6839 21.5587 41.1213 22.1213C40.5587 22.6839 39.7957 23 39 23C38.2043 23 37.4413 22.6839 36.8787 22.1213C36.3161 21.5587 36 20.7956 36 20C36 19.2044 36.3161 18.4413 36.8787 17.8787C37.4413 17.3161 38.2043 17 39 17Z" fill="black"/>
</svg>
